REM DIRINDEX 1\4,1\2\5,1\2\6,1\3\7,1\3\8
REM DIRNAME folder01,folder02,folder03,folder04,folder05,folder06,folder07,folder08
TITLE ""
FILE "042_Day21_Check3_Sentences.mp3" MP3
  TRACK 01 AUDIO
    TITLE "0:"
    INDEX 01 00:00:00
  TRACK 02 AUDIO
    TITLE "4:cjc124_1356"
    INDEX 01 00:00:25
  TRACK 03 AUDIO
    TITLE "0:"
    INDEX 01 00:01:52
  TRACK 04 AUDIO
    TITLE "7:cjc124_1357"
    INDEX 01 00:02:20
  TRACK 05 AUDIO
    TITLE "0:"
    INDEX 01 00:05:07
  TRACK 06 AUDIO
    TITLE "8:cjc124_1358"
    INDEX 01 00:05:26
  TRACK 07 AUDIO
    TITLE "0:"
    INDEX 01 00:08:07
  TRACK 08 AUDIO
    TITLE "7:cjc124_1359"
    INDEX 01 00:08:44
  TRACK 09 AUDIO
    TITLE "0:"
    INDEX 01 00:11:25
  TRACK 10 AUDIO
    TITLE "8:cjc124_1360"
    INDEX 01 00:11:44
  TRACK 11 AUDIO
    TITLE "0:"
    INDEX 01 00:14:49
  TRACK 12 AUDIO
    TITLE "7:cjc124_1361"
    INDEX 01 00:15:11
  TRACK 13 AUDIO
    TITLE "0:"
    INDEX 01 00:17:49
  TRACK 14 AUDIO
    TITLE "8:cjc124_1362"
    INDEX 01 00:17:69
  TRACK 15 AUDIO
    TITLE "0:"
    INDEX 01 00:20:53
  TRACK 16 AUDIO
    TITLE "7:cjc124_1363"
    INDEX 01 00:21:13
  TRACK 17 AUDIO
    TITLE "0:"
    INDEX 01 00:23:34
  TRACK 18 AUDIO
    TITLE "8:cjc124_1364"
    INDEX 01 00:23:53
  TRACK 19 AUDIO
    TITLE "0:"
    INDEX 01 00:25:41
  TRACK 20 AUDIO
    TITLE "7:cjc124_1365"
    INDEX 01 00:26:11
  TRACK 21 AUDIO
    TITLE "0:"
    INDEX 01 00:29:29
  TRACK 22 AUDIO
    TITLE "8:cjc124_1366"
    INDEX 01 00:29:44
  TRACK 23 AUDIO
    TITLE "0:"
    INDEX 01 00:32:64
  TRACK 24 AUDIO
    TITLE "7:cjc124_1367"
    INDEX 01 00:33:26
  TRACK 25 AUDIO
    TITLE "0:"
    INDEX 01 00:35:17
  TRACK 26 AUDIO
    TITLE "8:cjc124_1368"
    INDEX 01 00:35:45
  TRACK 27 AUDIO
    TITLE "0:"
    INDEX 01 00:38:37
  TRACK 28 AUDIO
    TITLE "7:cjc124_1369"
    INDEX 01 00:38:73
  TRACK 29 AUDIO
    TITLE "0:"
    INDEX 01 00:41:08
  TRACK 30 AUDIO
    TITLE "8:cjc124_1370"
    INDEX 01 00:41:26
  TRACK 31 AUDIO
    TITLE "0:"
    INDEX 01 00:43:29
  TRACK 32 AUDIO
    TITLE "7:cjc124_1371"
    INDEX 01 00:43:64
  TRACK 33 AUDIO
    TITLE "0:"
    INDEX 01 00:46:23
  TRACK 34 AUDIO
    TITLE "8:cjc124_1372"
    INDEX 01 00:46:39
  TRACK 35 AUDIO
    TITLE "0:"
    INDEX 01 00:48:51
  TRACK 36 AUDIO
    TITLE "7:cjc124_1373"
    INDEX 01 00:49:12
  TRACK 37 AUDIO
    TITLE "0:"
    INDEX 01 00:50:70
  TRACK 38 AUDIO
    TITLE "8:cjc124_1374"
    INDEX 01 00:51:11
  TRACK 39 AUDIO
    TITLE "0:"
    INDEX 01 00:53:25
  TRACK 40 AUDIO
    TITLE "7:cjc124_1375"
    INDEX 01 00:53:62
  TRACK 41 AUDIO
    TITLE "0:"
    INDEX 01 00:57:46
  TRACK 42 AUDIO
    TITLE "8:cjc124_1376"
    INDEX 01 00:57:62
  TRACK 43 AUDIO
    TITLE "0:"
    INDEX 01 01:01:01
  TRACK 44 AUDIO
    TITLE "7:cjc124_1377"
    INDEX 01 01:01:38
  TRACK 45 AUDIO
    TITLE "0:"
    INDEX 01 01:03:31
  TRACK 46 AUDIO
    TITLE "8:cjc124_1378"
    INDEX 01 01:03:49
  TRACK 47 AUDIO
    TITLE "0:"
    INDEX 01 01:05:58
  TRACK 48 AUDIO
    TITLE "7:cjc124_1379"
    INDEX 01 01:06:20
  TRACK 49 AUDIO
    TITLE "0:"
    INDEX 01 01:08:40
  TRACK 50 AUDIO
    TITLE "8:cjc124_1380"
    INDEX 01 01:08:60
  TRACK 51 AUDIO
    TITLE "0:"
    INDEX 01 01:10:59
  TRACK 52 AUDIO
    TITLE "7:cjc124_1381"
    INDEX 01 01:11:21
  TRACK 53 AUDIO
    TITLE "0:"
    INDEX 01 01:13:10
  TRACK 54 AUDIO
    TITLE "8:cjc124_1382"
    INDEX 01 01:13:26
  TRACK 55 AUDIO
    TITLE "0:"
    INDEX 01 01:15:52
  TRACK 56 AUDIO
    TITLE "7:cjc124_1383"
    INDEX 01 01:16:16
  TRACK 57 AUDIO
    TITLE "0:"
    INDEX 01 01:18:06
  TRACK 58 AUDIO
    TITLE "8:cjc124_1384"
    INDEX 01 01:18:31
  TRACK 59 AUDIO
    TITLE "0:"
    INDEX 01 01:21:10
  TRACK 60 AUDIO
    TITLE "7:cjc124_1385"
    INDEX 01 01:21:49
  TRACK 61 AUDIO
    TITLE "0:"
    INDEX 01 01:23:52
  TRACK 62 AUDIO
    TITLE "8:cjc124_1386"
    INDEX 01 01:23:71
  TRACK 63 AUDIO
    TITLE "0:"
    INDEX 01 01:25:55
  TRACK 64 AUDIO
    TITLE "7:cjc124_1387"
    INDEX 01 01:26:19
  TRACK 65 AUDIO
    TITLE "0:"
    INDEX 01 01:28:37
  TRACK 66 AUDIO
    TITLE "8:cjc124_1388"
    INDEX 01 01:28:57
  TRACK 67 AUDIO
    TITLE "0:"
    INDEX 01 01:32:08
